<?xml version="1.0" encoding="utf-8"?>
<!-- Generator: Adobe Illustrator 24.0.0, SVG Export Plug-In . SVG Version: 6.00 Build 0)  -->
<svg width="90px" height="18.73px" viewBox="0 0 90 18.73" version="1.1" xmlns="http://www.w3.org/2000/svg" xmlns:xlink="http://www.w3.org/1999/xlink">
<style type="text/css">
	.st0{fill:#D7181F;}
</style>
<g>
	<path class="st0" d="M87.6,1.8H88c0.2,0,0.3,0,0.4-0.1s0.1-0.1,0.1-0.2c0,0,0-0.1,0-0.2c0,0-0.1-0.1-0.1-0.1c0,0-0.2,0-0.3,0h-0.4
		L87.6,1.8L87.6,1.8z M87.2,2.9v-2H88c0.2,0,0.4,0,0.5,0c0.1,0,0.2,0.1,0.3,0.2c0,0.1,0.1,0.2,0.1,0.3c0,0.1,0,0.3-0.2,0.4
		C88.6,1.9,88.4,2,88.3,2c0.1,0,0.1,0,0.2,0.1c0.1,0.1,0.2,0.2,0.3,0.4L89,2.9h-0.5l-0.2-0.3c-0.1-0.3-0.3-0.4-0.4-0.5
		C88,2,87.9,2,87.7,2h-0.2v0.8L87.2,2.9L87.2,2.9z M88.1,0.3c-0.3,0-0.5,0.1-0.8,0.2c-0.3,0.1-0.4,0.3-0.6,0.6
		c-0.1,0.3-0.2,0.5-0.2,0.8c0,0.3,0.1,0.5,0.2,0.8c0.1,0.3,0.3,0.4,0.6,0.6c0.3,0.1,0.5,0.2,0.8,0.2c0.3,0,0.5-0.1,0.8-0.2
		c0.3-0.1,0.4-0.3,0.6-0.6c0.1-0.3,0.2-0.5,0.2-0.8s-0.1-0.5-0.2-0.8c-0.1-0.3-0.4-0.4-0.6-0.6C88.6,0.4,88.3,0.3,88.1,0.3z M88.1,0
		c0.3,0,0.6,0.1,0.9,0.2c0.3,0.2,0.5,0.4,0.7,0.7C89.9,1.2,90,1.6,90,1.9s-0.1,0.6-0.3,0.9S89.3,3.3,89,3.5
		c-0.3,0.2-0.6,0.3-0.9,0.3c-0.3,0-0.6-0.1-0.9-0.3c-0.3-0.2-0.5-0.4-0.7-0.7s-0.3-0.6-0.3-0.9s0.1-0.6,0.3-0.9
		c0.2-0.3,0.4-0.5,0.7-0.7C87.5,0.1,87.7,0,88.1,0z"/>
	<rect x="60" class="st0" width="3.7" height="18.7"/>
	<polygon class="st0" points="44.7,18.7 44.7,18.7 35.6,0 39.6,0 46.8,14.9 54.1,0 58.1,0 49,18.7 	"/>
	<polygon class="st0" points="32.2,0 41.2,18.7 37.2,18.7 30,3.7 26.4,11.2 31.8,11.2 33.6,14.9 24.6,14.9 22.7,18.7 18.8,18.7 
		27.8,0 	"/>
	<path class="st0" d="M18.8,0H5.4c-3.3,0-5,2.6-5,5.6s1.7,5.6,5,5.6c2.4,0,4.9,0,7.4,0c1,0,1.9,0.8,1.9,1.9s-0.8,1.9-1.9,1.9H1.9
		L0,18.7h13.4c3.3,0,5-2.6,5-5.6s-1.7-5.6-5-5.6c-2.4,0-4.9,0-7.4,0c-1,0-1.9-0.8-1.9-1.9S5,3.8,6,3.8h10.9L18.8,0z"/>
	<path class="st0" d="M84.3,0H70.9c-3.3,0-5,2.6-5,5.6s1.7,5.6,5,5.6c2.4,0,4.9,0,7.4,0c1,0,1.9,0.8,1.9,1.9s-0.8,1.9-1.9,1.9H67.4
		l-1.9,3.7H79c3.3,0,5-2.6,5-5.6s-1.7-5.6-5-5.6c-2.4,0-4.9,0-7.4,0c-1,0-1.9-0.8-1.9-1.9s0.8-1.9,1.9-1.9h10.9L84.3,0z"/>
</g>
</svg>
