<svg width="56" height="44" viewBox="0 0 56 44" fill="none" xmlns="http://www.w3.org/2000/svg">
<path d="M3.19236 43.4762H1.69349L0.0162354 35.6951H1.26752L2.45224 41.609L3.48255 35.6951H4.70189L3.19236 43.4762Z" fill="#0C5CA8"/>
<path d="M8.73522 43.4762L6.63998 38.2985V43.4762H5.48987V35.6951H6.7092L8.66866 40.5364V35.6951H9.81878V43.4762H8.73522Z" fill="#0C5CA8"/>
<path d="M15.2766 38.0548C15.2776 38.378 15.2337 38.6997 15.1462 39.0109C15.0602 39.3196 14.8907 39.599 14.6563 39.8187C14.4456 40.0263 14.1796 40.1697 13.8896 40.2318C13.6014 40.2904 13.3079 40.3197 13.0137 40.3192H12.215V43.4682H11.009V35.6951H13.0137C13.8248 35.6951 14.4052 35.8902 14.7548 36.2804C15.1116 36.6697 15.2766 37.2603 15.2766 38.0548ZM14.0227 37.9648C14.0227 37.4987 13.9215 37.1888 13.7245 37.0352C13.4309 36.8566 13.0877 36.7758 12.7448 36.8048H12.2123V39.2122H12.7448C13.2293 39.2122 13.5648 39.1274 13.7458 38.9474C13.9269 38.7673 14.0227 38.4521 14.0227 37.9648Z" fill="#0C5CA8"/>
<path d="M18.3064 36.8074V43.4762H17.103V36.8074H15.5908V35.6951H19.8345V36.8074H18.3064Z" fill="#0C5CA8"/>
<path d="M27.2516 41.6089C27.2567 41.8953 27.2013 42.1795 27.0892 42.4432C26.9848 42.6812 26.8294 42.8936 26.6339 43.0656C26.4358 43.2395 26.2051 43.3727 25.955 43.4575C25.683 43.5477 25.3978 43.5924 25.1111 43.59C24.3887 43.59 23.8411 43.3949 23.4684 43.0047C23.0661 42.5556 22.8124 41.9944 22.7416 41.3971L23.9024 41.0607C23.9256 41.2334 23.9648 41.4037 24.0195 41.5692C24.0724 41.729 24.1476 41.8806 24.2431 42.0194C24.3351 42.1498 24.454 42.2591 24.5919 42.3399C24.7548 42.4283 24.939 42.4705 25.1244 42.4617C25.2435 42.4705 25.3632 42.4536 25.4751 42.412C25.587 42.3704 25.6886 42.3053 25.7728 42.221C25.857 42.1367 25.9219 42.0353 25.963 41.9237C26.0041 41.8121 26.0205 41.693 26.0109 41.5745C26.0121 41.3377 25.9354 41.1071 25.7926 40.9177C25.6286 40.7056 25.4391 40.5144 25.2282 40.3483C25.0019 40.1629 24.757 39.9775 24.5014 39.7974C24.243 39.6141 24 39.4104 23.7746 39.1883C23.55 38.9717 23.3597 38.7226 23.2102 38.4494C23.0753 38.1821 22.9996 37.8893 22.9881 37.5905C22.9766 37.2917 23.0297 36.994 23.1436 36.7173C23.2431 36.4866 23.3911 36.2798 23.5776 36.1108C23.7659 35.9419 23.9857 35.8115 24.2245 35.7268C24.4807 35.6353 24.751 35.5895 25.0232 35.5917C25.306 35.5868 25.5872 35.6363 25.8512 35.7374C26.0851 35.8318 26.2984 35.9703 26.4795 36.1452C26.6622 36.3258 26.815 36.5341 26.9321 36.7623C27.0571 37.01 27.1527 37.2713 27.2169 37.5409L26.0615 37.8773C26.0269 37.7502 25.9816 37.6125 25.9284 37.4774C25.8793 37.3439 25.8112 37.2181 25.7261 37.104C25.6436 36.9994 25.5437 36.9098 25.4305 36.8391C25.3088 36.7629 25.167 36.7242 25.0232 36.7279C24.9193 36.7254 24.8159 36.7444 24.7197 36.7836C24.6235 36.8228 24.5365 36.8814 24.4641 36.9556C24.3907 37.0299 24.333 37.1182 24.2946 37.2151C24.2562 37.312 24.2378 37.4156 24.2405 37.5198C24.2398 37.7533 24.3186 37.9801 24.4641 38.1633C24.6283 38.3721 24.8179 38.5598 25.0285 38.7221C25.2548 38.8996 25.4971 39.0823 25.7553 39.273C26.0139 39.4599 26.257 39.6671 26.4821 39.8928C26.7074 40.117 26.8968 40.3742 27.0439 40.6555C27.1877 40.9526 27.2588 41.2793 27.2516 41.6089Z" fill="#0C5CA8"/>
<path d="M32.8183 43.476V39.2385C32.8183 39.1591 32.8183 39.0796 32.8183 39.0028C32.814 38.9284 32.7978 38.8551 32.7704 38.7857C32.7432 38.7206 32.698 38.6645 32.64 38.6241C32.5692 38.5775 32.485 38.5551 32.4003 38.5605C32.2094 38.5609 32.0254 38.6317 31.8839 38.7592C31.7391 38.8739 31.6079 39.0045 31.4925 39.1485V43.4893H30.4063V39.2518C30.4063 39.1723 30.4063 39.0929 30.4063 39.0161C30.4024 38.9413 30.3853 38.8678 30.3557 38.7989C30.3295 38.734 30.2852 38.6779 30.2279 38.6373C30.1568 38.5914 30.0729 38.5691 29.9883 38.5738C29.8045 38.5739 29.6269 38.6397 29.4878 38.7592C29.3477 38.8747 29.2209 39.0052 29.1097 39.1485V43.4893H28.0049V37.6786H29.1097V38.4228C29.2967 38.2074 29.5085 38.0145 29.7407 37.8481C29.9754 37.6876 30.2547 37.6043 30.5394 37.6098C30.6543 37.6019 30.7695 37.6176 30.8781 37.6559C30.9866 37.6941 31.0861 37.7542 31.1704 37.8322C31.3226 37.9963 31.4219 38.202 31.4552 38.4228C31.6544 38.2113 31.8748 38.0205 32.1128 37.8534C32.354 37.6894 32.6407 37.6042 32.9328 37.6098C33.1047 37.6025 33.2752 37.6428 33.4253 37.7263C33.5494 37.7986 33.6515 37.9029 33.7208 38.0282C33.7942 38.1594 33.8421 38.3031 33.8619 38.452C33.8844 38.6161 33.896 38.7816 33.8966 38.9472V43.476H32.8183Z" fill="#0C5CA8"/>
<path d="M37.4349 43.4761C37.3931 43.3688 37.3653 43.2567 37.3524 43.1424C37.3524 43.0311 37.3364 42.9173 37.3364 42.7981C37.1592 42.9906 36.966 43.1678 36.7587 43.3278C36.5433 43.4856 36.2805 43.5659 36.0132 43.5555C35.8209 43.5617 35.6304 43.516 35.4621 43.4231C35.3145 43.3335 35.1896 43.2112 35.0974 43.0656C34.9998 42.9146 34.932 42.7465 34.8977 42.5703C34.8584 42.3893 34.8387 42.2046 34.8392 42.0194C34.8356 41.7826 34.8734 41.5469 34.951 41.3229C35.0358 41.1036 35.1707 40.9068 35.345 40.7482C35.6225 40.49 35.9433 40.282 36.2928 40.1338C36.6602 39.9722 37.0089 39.8239 37.3364 39.6835V39.3816C37.3363 39.2808 37.3309 39.18 37.3204 39.0797C37.3097 38.9881 37.2846 38.8987 37.2459 38.8148C37.2071 38.7371 37.146 38.6725 37.0702 38.6294C36.9759 38.5802 36.8704 38.5564 36.764 38.5606C36.6627 38.5492 36.5603 38.5684 36.4701 38.6156C36.3799 38.6628 36.3061 38.7359 36.2582 38.8254C36.1682 39.004 36.1199 39.2004 36.1171 39.4001H34.9536C34.9655 38.9007 35.1727 38.4256 35.5314 38.0759C35.9188 37.7587 36.412 37.598 36.9131 37.6257C37.1335 37.6245 37.3531 37.6539 37.5654 37.7131C37.774 37.7782 37.9591 37.9024 38.0978 38.0706C38.2551 38.2354 38.355 38.4462 38.3827 38.6718C38.4071 38.8935 38.4196 39.1163 38.42 39.3392V41.9215C38.42 42.1863 38.42 42.4511 38.42 42.716C38.4276 42.9799 38.4661 43.2421 38.5344 43.4973L37.4349 43.4761ZM37.3364 40.4913C37.1953 40.5602 37.0462 40.6396 36.8891 40.735C36.734 40.8258 36.5894 40.9332 36.4578 41.0554C36.3282 41.1742 36.2162 41.3106 36.1251 41.4606C36.0353 41.6083 35.9892 41.7781 35.9919 41.9506C35.9903 42.1105 36.0387 42.2669 36.1304 42.3982C36.1756 42.4639 36.237 42.517 36.3088 42.5523C36.3807 42.5875 36.4604 42.6038 36.5404 42.5994C36.7099 42.6021 36.8753 42.547 37.0089 42.4432C37.1399 42.3416 37.2509 42.2168 37.3364 42.0751V40.4913Z" fill="#0C5CA8"/>
<path d="M41.7931 38.7777C41.7053 38.7613 41.6162 38.7533 41.5269 38.7539C41.3625 38.7452 41.1987 38.7809 41.053 38.8572C40.94 38.9175 40.8474 39.0096 40.7868 39.122C40.7271 39.2479 40.6901 39.3833 40.6776 39.5219C40.6615 39.6732 40.6535 39.8253 40.6537 39.9775V43.4628H39.5488V37.6786H40.6696V38.6797C40.7757 38.3821 40.9456 38.111 41.1675 37.8852C41.4168 37.6869 41.7334 37.592 42.0514 37.6203V38.8678C41.9691 38.8279 41.8824 38.7977 41.7931 38.7777Z" fill="#0C5CA8"/>
<path d="M44.9933 43.5264C44.8714 43.5415 44.7487 43.5486 44.6259 43.5476C44.4068 43.5484 44.1886 43.5217 43.9763 43.4681C43.7668 43.4105 43.5807 43.2892 43.4438 43.1212C43.295 42.9523 43.207 42.7389 43.1936 42.5147C43.1776 42.2816 43.1669 42.0592 43.1669 41.8446V38.6586H42.339V37.6787H43.1669V36.0896H44.2718V37.6787H45.2702V38.6586H44.2638V41.7387C44.2545 41.9467 44.3014 42.1534 44.3996 42.3373C44.4618 42.4202 44.5453 42.4851 44.6413 42.5251C44.7372 42.5652 44.8422 42.579 44.9454 42.565C45.0158 42.5662 45.0862 42.5609 45.1557 42.5491C45.2116 42.5359 45.2755 42.52 45.3527 42.4962V43.4761C45.2302 43.4999 45.1104 43.5264 44.9933 43.5264Z" fill="#0C5CA8"/>
<path d="M50.0835 42.0247C50.0224 42.3198 49.901 42.5993 49.7267 42.8458C49.5575 43.0828 49.329 43.2717 49.0638 43.394C48.7427 43.5335 48.3944 43.6005 48.0442 43.59C47.7013 43.595 47.3611 43.5282 47.0458 43.394C46.7351 43.252 46.4745 43.0204 46.2977 42.7292C46.1948 42.584 46.1165 42.423 46.0661 42.2525C46.0125 42.0797 45.9751 41.9024 45.9543 41.7228C45.9308 41.5419 45.9193 41.3597 45.9197 41.1772V38.4573C45.9197 38.264 45.9197 38.0759 45.9197 37.8879C45.9239 37.7035 45.939 37.5196 45.9649 37.337C45.9915 37.1562 46.037 36.9787 46.1007 36.8073C46.1661 36.6275 46.2556 36.4574 46.3669 36.3015C46.5556 36.0518 46.8125 35.8615 47.107 35.7532C47.3991 35.6405 47.7097 35.583 48.0229 35.5837C48.3503 35.577 48.6753 35.6402 48.976 35.7691C49.2334 35.8844 49.4596 36.0586 49.6362 36.2776C49.8137 36.5036 49.9432 36.7631 50.0169 37.0404C50.1012 37.3512 50.1424 37.6719 50.1394 37.9938V38.2295H48.9334C48.9334 38.068 48.9334 37.8985 48.9094 37.7237C48.896 37.5553 48.8565 37.3901 48.7923 37.2337C48.7354 37.0895 48.644 36.9613 48.526 36.8603C48.3829 36.7562 48.2079 36.7048 48.0309 36.7146C47.8479 36.7031 47.6664 36.7545 47.517 36.8603C47.3978 36.9581 47.3061 37.0849 47.2508 37.2284C47.1911 37.3838 47.1552 37.5471 47.1443 37.7131C47.1443 37.8852 47.1283 38.0547 47.1283 38.2189V40.8118C47.1283 40.9733 47.1283 41.1534 47.1283 41.3414C47.134 41.5222 47.1682 41.7009 47.2295 41.8711C47.2823 42.0295 47.3738 42.1724 47.4957 42.2869C47.6448 42.4093 47.8354 42.47 48.0282 42.4564C48.2215 42.4674 48.4119 42.4049 48.5607 42.2816C48.6908 42.164 48.7872 42.0141 48.8402 41.8473C48.9006 41.6666 48.9364 41.4786 48.9467 41.2885C48.9467 41.0872 48.968 40.9071 48.968 40.7429H50.1687V41.0077C50.1756 41.3488 50.1471 41.6896 50.0835 42.0247Z" fill="#0C5CA8"/>
<path d="M54.2632 43.4681L53.9384 41.7758H52.2612L51.9577 43.4681H50.7863L52.2852 35.6844H53.9411L55.5199 43.4681H54.2632ZM53.0785 37.1702L52.4609 40.6555H53.7148L53.0785 37.1702Z" fill="#0C5CA8"/>
<path d="M21.5009 15.6596C25.8464 11.2008 31.2472 7.89794 37.2085 6.05372C37.1073 6.0855 37.0062 6.11463 36.9077 6.14906C35.6041 3.97492 33.6499 2.26054 31.3185 1.24578C28.9871 0.231019 26.3952 -0.0333598 23.9053 0.489631C21.4154 1.01262 19.1521 2.29682 17.4321 4.16256C15.7121 6.0283 14.6215 8.38224 14.3127 10.8951C15.7801 11.1422 17.1787 11.6942 18.4173 12.5152C19.6558 13.3361 20.7065 14.4075 21.5009 15.6596Z" fill="url(#paint0_linear)"/>
<path d="M21.5009 15.6596L21.5568 15.7417H23.4204C23.7865 15.7412 24.1437 15.8538 24.4427 16.064C24.7417 16.2741 24.9678 16.5715 25.0896 16.9149H27.6588C27.894 16.9147 28.127 16.9614 28.3437 17.0524C28.5605 17.1434 28.7567 17.2768 28.9207 17.4446L28.9979 17.5214C34.9322 13.3342 41.2392 11.2155 44.7907 12.2325H44.7641C44.7827 12.0391 44.7933 11.8432 44.7933 11.6472C44.7975 10.7327 44.5852 9.83012 44.1736 9.01241C43.7621 8.19469 43.1628 7.48483 42.4244 6.94024C41.6859 6.39565 40.8289 6.03162 39.9228 5.8776C39.0166 5.72359 38.0868 5.78391 37.2084 6.05369C31.2472 7.89791 25.8464 11.2007 21.5009 15.6596Z" fill="url(#paint1_linear)"/>
<path d="M12.8778 31.7832H16.7355C16.9032 31.4151 17.0763 31.0496 17.268 30.6868C15.902 31.3649 14.4039 31.7391 12.8778 31.7832Z" fill="url(#paint2_linear)"/>
<path d="M44.7909 12.2324C41.2394 11.2234 34.9404 13.3448 29.0061 17.5293L29.2724 17.7941H30.2201C30.5529 17.4392 31.0188 16.9043 31.506 16.9043H33.6678C34.1763 16.9043 34.6103 17.5055 34.9191 17.7941H35.4196C35.6086 17.5293 35.8908 16.936 36.5484 16.9043H38.9445C39.1934 16.9045 39.4394 16.9569 39.6665 17.0582C39.8936 17.1596 40.0967 17.3075 40.2623 17.4922L42.7383 20.2466C43.0281 20.5683 43.1883 20.9852 43.1882 21.4172C43.1882 21.5788 43.1882 22.0581 43.1882 22.1323C43.1701 22.5326 43.0151 22.9147 42.7489 23.2155L41.2021 25.1488C41.0365 25.3544 40.8266 25.5203 40.5879 25.6344C40.3492 25.7486 40.0879 25.808 39.8231 25.8083H25.0207C24.8747 26.1059 24.6475 26.3567 24.365 26.5318C24.0825 26.707 23.7562 26.7995 23.4233 26.7988H21.5597C20.5164 28.4671 19.0266 29.8134 17.2574 30.6867C17.0737 31.0496 16.9006 31.415 16.7249 31.7832H41.1116C41.2474 31.7832 41.3778 31.7832 41.5216 31.7832C43.9154 31.7848 46.2319 30.9406 48.0582 29.4011C49.8845 27.8617 51.1019 25.727 51.4933 23.3778C51.8846 21.0285 51.4245 18.6173 50.1951 16.5741C48.9656 14.5309 47.0466 12.9885 44.7803 12.2218L44.7909 12.2324Z" fill="url(#paint3_linear)"/>
<path d="M41.431 21.4305L38.9684 18.6761H36.5723L36.0399 19.6719H34.5596L33.7103 18.6761H31.5619L30.6327 19.664H28.6892L27.7335 18.6814H23.5217V17.5161H20.6225C19.7628 15.7208 18.315 14.2697 16.5168 13.4012C14.7186 12.5327 12.6769 12.2984 10.7271 12.7367C8.7773 13.1751 7.03535 14.2601 5.78735 15.8134C4.53936 17.3668 3.85953 19.2962 3.85953 21.2848C3.85953 23.2733 4.53936 25.2028 5.78735 26.7562C7.03535 28.3095 8.7773 29.3945 10.7271 29.8329C12.6769 30.2712 14.7186 30.0369 16.5168 29.1684C18.315 28.2999 19.7628 26.8488 20.6225 25.0535H23.5217V24.063H39.839L41.3778 22.1429H23.5217V21.4437L41.431 21.4305ZM9.42747 24.553C8.77428 24.5551 8.13517 24.3642 7.59114 24.0045C7.04712 23.6449 6.62268 23.1327 6.37162 22.5328C6.12056 21.9329 6.05418 21.2724 6.1809 20.635C6.30762 19.9975 6.62173 19.4119 7.08342 18.9522C7.54511 18.4925 8.13359 18.1796 8.77427 18.053C9.41495 17.9264 10.079 17.9919 10.6822 18.2412C11.2854 18.4905 11.8007 18.9123 12.1626 19.4532C12.5246 19.9941 12.717 20.6297 12.7154 21.2795C12.7154 22.1472 12.3691 22.9794 11.7526 23.5933C11.136 24.2071 10.2997 24.5523 9.42747 24.553Z" fill="#DE9B39"/>
<defs>
<linearGradient id="paint0_linear" x1="7.68088" y1="7.9341" x2="31.221" y2="7.9341" gradientUnits="userSpaceOnUse">
<stop stop-color="#2BA8DF"/>
<stop offset="0.51" stop-color="#0079C1"/>
<stop offset="1" stop-color="#04679D"/>
</linearGradient>
<linearGradient id="paint1_linear" x1="12.0124" y1="11.6631" x2="43.3291" y2="11.6631" gradientUnits="userSpaceOnUse">
<stop stop-color="#2BA8DF"/>
<stop offset="0.54" stop-color="#0079C1"/>
<stop offset="1" stop-color="#04679D"/>
</linearGradient>
<linearGradient id="paint2_linear" x1="348.109" y1="205.669" x2="864.521" y2="205.669" gradientUnits="userSpaceOnUse">
<stop stop-color="#2BA8DF"/>
<stop offset="0.54" stop-color="#0079C1"/>
<stop offset="1" stop-color="#04679D"/>
</linearGradient>
<linearGradient id="paint3_linear" x1="4398.96" y1="2473.04" x2="8974.56" y2="2473.04" gradientUnits="userSpaceOnUse">
<stop stop-color="#2BA8DF"/>
<stop offset="0.54" stop-color="#0079C1"/>
<stop offset="1" stop-color="#04679D"/>
</linearGradient>
</defs>
</svg>
